<svg xmlns="http://www.w3.org/2000/svg" version="1.1" xmlns:xlink="http://www.w3.org/1999/xlink" xmlns:svgjs="http://svgjs.com/svgjs" width="1440" height="250" preserveAspectRatio="none" viewBox="0 0 1440 250"><g mask="url(&quot;#SvgjsMask2054&quot;)" fill="none"><rect width="1440" height="250" x="0" y="0" fill="url(#SvgjsLinearGradient2055)"></rect><path d="M32 250L282 0L471 0L221 250z" fill="url(#SvgjsLinearGradient2056)"></path><path d="M277.6 250L527.6 0L596.6 0L346.6 250z" fill="url(#SvgjsLinearGradient2056)"></path><path d="M486.20000000000005 250L736.2 0L829.2 0L579.2 250z" fill="url(#SvgjsLinearGradient2056)"></path><path d="M746.8000000000001 250L996.8000000000001 0L1197.8000000000002 0L947.8000000000001 250z" fill="url(#SvgjsLinearGradient2056)"></path><path d="M1415 250L1165 0L943 0L1193 250z" fill="url(#SvgjsLinearGradient2057)"></path><path d="M1200.4 250L950.4000000000001 0L783.9000000000001 0L1033.9 250z" fill="url(#SvgjsLinearGradient2057)"></path><path d="M933.8 250L683.8 0L556.3 0L806.3 250z" fill="url(#SvgjsLinearGradient2057)"></path><path d="M719.1999999999999 250L469.19999999999993 0L181.19999999999993 0L431.19999999999993 250z" fill="url(#SvgjsLinearGradient2057)"></path><path d="M1234.1074032594029 250L1440 44.107403259402844L1440 250z" fill="url(#SvgjsLinearGradient2056)"></path><path d="M0 250L205.89259674059716 250L 0 44.107403259402844z" fill="url(#SvgjsLinearGradient2057)"></path></g><defs><mask id="SvgjsMask2054"><rect width="1440" height="250" fill="#ffffff"></rect></mask><linearGradient x1="20.66%" y1="-119%" x2="79.34%" y2="219%" gradientUnits="userSpaceOnUse" id="SvgjsLinearGradient2055"><stop stop-color="rgba(0, 84, 223, 1)" offset="0"></stop><stop stop-color="rgba(106, 179, 255, 1)" offset="1"></stop></linearGradient><linearGradient x1="0%" y1="100%" x2="100%" y2="0%" id="SvgjsLinearGradient2056"><stop stop-color="rgba(15, 70, 185, 0.2)" offset="0"></stop><stop stop-opacity="0" stop-color="rgba(15, 70, 185, 0.2)" offset="0.66"></stop></linearGradient><linearGradient x1="100%" y1="100%" x2="0%" y2="0%" id="SvgjsLinearGradient2057"><stop stop-color="rgba(15, 70, 185, 0.2)" offset="0"></stop><stop stop-opacity="0" stop-color="rgba(15, 70, 185, 0.2)" offset="0.66"></stop></linearGradient></defs></svg>